<svg width="26" height="28" viewBox="-10 -10 56 48" fill="none" xmlns="http://www.w3.org/2000/svg">
<g filter="url(#filter0_dd)">
<path d="M4 8H6H22" fill="#6EB8A1"/>
<path d="M20 8V22C20 22.5304 19.7893 23.0391 19.4142 23.4142C19.0391 23.7893 18.5304 24 18 24H8C7.46957 24 6.96086 23.7893 6.58579 23.4142C6.21071 23.0391 6 22.5304 6 22V8H20ZM9 8V6C9 5.46957 9.21071 4.96086 9.58579 4.58579C9.96086 4.21071 10.4696 4 11 4H15C15.5304 4 16.0391 4.21071 16.4142 4.58579C16.7893 4.96086 17 5.46957 17 6V8" fill="#6EB8A1"/>
<path d="M4 8H6M6 8H22M6 8V22C6 22.5304 6.21071 23.0391 6.58579 23.4142C6.96086 23.7893 7.46957 24 8 24H18C18.5304 24 19.0391 23.7893 19.4142 23.4142C19.7893 23.0391 20 22.5304 20 22V8H6ZM9 8V6C9 5.46957 9.21071 4.96086 9.58579 4.58579C9.96086 4.21071 10.4696 4 11 4H15C15.5304 4 16.0391 4.21071 16.4142 4.58579C16.7893 4.96086 17 5.46957 17 6V8M11 13V19M15 13V19" stroke="#00394E" stroke-linecap="round" stroke-linejoin="round"/>
</g>
<defs>
<filter id="filter0_dd" x="0.5" y="0.5" width="25" height="27" filterUnits="userSpaceOnUse" color-interpolation-filters="sRGB">
<feFlood flood-opacity="0" result="BackgroundImageFix"/>
<feColorMatrix in="SourceAlpha" type="matrix" values="0 0 0 0 0 0 0 0 0 0 0 0 0 0 0 0 0 0 127 0"/>
<feMorphology radius="1" operator="erode" in="SourceAlpha" result="effect1_dropShadow"/>
<feOffset dx="-2" dy="2"/>
<feGaussianBlur stdDeviation="1"/>
<feColorMatrix type="matrix" values="0 0 0 0 0 0 0 0 0 0 0 0 0 0 0 0 0 0 0.3 0"/>
<feBlend mode="normal" in2="BackgroundImageFix" result="effect1_dropShadow"/>
<feColorMatrix in="SourceAlpha" type="matrix" values="0 0 0 0 0 0 0 0 0 0 0 0 0 0 0 0 0 0 127 0"/>
<feMorphology radius="1" operator="erode" in="SourceAlpha" result="effect2_dropShadow"/>
<feOffset dx="2" dy="-2"/>
<feGaussianBlur stdDeviation="1"/>
<feColorMatrix type="matrix" values="0 0 0 0 1 0 0 0 0 1 0 0 0 0 1 0 0 0 0.4 0"/>
<feBlend mode="normal" in2="effect1_dropShadow" result="effect2_dropShadow"/>
<feBlend mode="normal" in="SourceGraphic" in2="effect2_dropShadow" result="shape"/>
</filter>
</defs>
</svg>
