<svg width="28" height="30" viewBox="0 0 28 30" fill="none" xmlns="http://www.w3.org/2000/svg">
<g filter="url(#filter0_dd)">
<path d="M5 9H7H23" fill="#FF8308"/>
<path d="M21 9V23C21 23.5304 20.7893 24.0391 20.4142 24.4142C20.0391 24.7893 19.5304 25 19 25H9C8.46957 25 7.96086 24.7893 7.58579 24.4142C7.21071 24.0391 7 23.5304 7 23V9H21ZM10 9V7C10 6.46957 10.2107 5.96086 10.5858 5.58579C10.9609 5.21071 11.4696 5 12 5H16C16.5304 5 17.0391 5.21071 17.4142 5.58579C17.7893 5.96086 18 6.46957 18 7V9" fill="#FF8308"/>
<path d="M5 9H7M7 9H23M7 9V23C7 23.5304 7.21071 24.0391 7.58579 24.4142C7.96086 24.7893 8.46957 25 9 25H19C19.5304 25 20.0391 24.7893 20.4142 24.4142C20.7893 24.0391 21 23.5304 21 23V9H7ZM10 9V7C10 6.46957 10.2107 5.96086 10.5858 5.58579C10.9609 5.21071 11.4696 5 12 5H16C16.5304 5 17.0391 5.21071 17.4142 5.58579C17.7893 5.96086 18 6.46957 18 7V9M12 14V20M16 14V20" stroke="#00394E" stroke-linecap="round" stroke-linejoin="round"/>
</g>
<defs>
<filter id="filter0_dd" x="0.5" y="0.5" width="27" height="29" filterUnits="userSpaceOnUse" color-interpolation-filters="sRGB">
<feFlood flood-opacity="0" result="BackgroundImageFix"/>
<feColorMatrix in="SourceAlpha" type="matrix" values="0 0 0 0 0 0 0 0 0 0 0 0 0 0 0 0 0 0 127 0"/>
<feOffset dx="2" dy="-2"/>
<feGaussianBlur stdDeviation="1"/>
<feColorMatrix type="matrix" values="0 0 0 0 0 0 0 0 0 0 0 0 0 0 0 0 0 0 0.3 0"/>
<feBlend mode="normal" in2="BackgroundImageFix" result="effect1_dropShadow"/>
<feColorMatrix in="SourceAlpha" type="matrix" values="0 0 0 0 0 0 0 0 0 0 0 0 0 0 0 0 0 0 127 0"/>
<feOffset dx="-2" dy="2"/>
<feGaussianBlur stdDeviation="1"/>
<feColorMatrix type="matrix" values="0 0 0 0 1 0 0 0 0 1 0 0 0 0 1 0 0 0 0.4 0"/>
<feBlend mode="normal" in2="effect1_dropShadow" result="effect2_dropShadow"/>
<feBlend mode="normal" in="SourceGraphic" in2="effect2_dropShadow" result="shape"/>
</filter>
</defs>
</svg>
