<svg width="9" height="7" viewBox="0 0 9 7" fill="none" xmlns="http://www.w3.org/2000/svg">
<path opacity="0.6" d="M3.9375 6.375L0.21875 2.65625C0.0911458 2.52865 0.0273438 2.3737 0.0273438 2.19141C0.0273438 2.00911 0.0911458 1.85417 0.21875 1.72656L0.847656 1.125C0.97526 0.997396 1.13021 0.933594 1.3125 0.933594C1.49479 0.933594 1.64974 0.997396 1.77734 1.125L4.40234 3.75L7.02734 1.125C7.15495 0.997396 7.3099 0.933594 7.49219 0.933594C7.67448 0.933594 7.82943 0.997396 7.95703 1.125L8.58594 1.72656C8.71354 1.85417 8.77734 2.00911 8.77734 2.19141C8.77734 2.3737 8.71354 2.52865 8.58594 2.65625L4.86719 6.375C4.73958 6.5026 4.58464 6.56641 4.40234 6.56641C4.22005 6.56641 4.0651 6.5026 3.9375 6.375Z" fill="black"/>
</svg>
