<svg width="30" height="30" viewBox="0 0 30 30" fill="none" xmlns="http://www.w3.org/2000/svg">
<g filter="url(#filter0_dd)">
<path d="M21.7273 17.7273C21.6063 18.0015 21.5702 18.3056 21.6236 18.6005C21.6771 18.8954 21.8177 19.1676 22.0273 19.3818L22.0818 19.4364C22.2509 19.6052 22.385 19.8057 22.4765 20.0265C22.568 20.2472 22.6151 20.4838 22.6151 20.7227C22.6151 20.9617 22.568 21.1983 22.4765 21.419C22.385 21.6397 22.2509 21.8402 22.0818 22.0091C21.913 22.1781 21.7124 22.3122 21.4917 22.4037C21.271 22.4952 21.0344 22.5423 20.7955 22.5423C20.5565 22.5423 20.3199 22.4952 20.0992 22.4037C19.8785 22.3122 19.6779 22.1781 19.5091 22.0091L19.4545 21.9545C19.2403 21.745 18.9682 21.6044 18.6733 21.5509C18.3784 21.4974 18.0742 21.5335 17.8 21.6545C17.5311 21.7698 17.3018 21.9611 17.1403 22.205C16.9788 22.4489 16.8921 22.7347 16.8909 23.0273V23.1818C16.8909 23.664 16.6994 24.1265 16.3584 24.4675C16.0174 24.8084 15.5549 25 15.0727 25C14.5905 25 14.1281 24.8084 13.7871 24.4675C13.4461 24.1265 13.2545 23.664 13.2545 23.1818V23.1C13.2475 22.7991 13.1501 22.5073 12.975 22.2625C12.7999 22.0176 12.5552 21.8312 12.2727 21.7273C11.9985 21.6063 11.6944 21.5702 11.3995 21.6236C11.1046 21.6771 10.8324 21.8177 10.6182 22.0273L10.5636 22.0818C10.3948 22.2509 10.1943 22.385 9.97353 22.4765C9.7528 22.568 9.51621 22.6151 9.27727 22.6151C9.03834 22.6151 8.80174 22.568 8.58102 22.4765C8.36029 22.385 8.15977 22.2509 7.99091 22.0818C7.82186 21.913 7.68775 21.7124 7.59625 21.4917C7.50476 21.271 7.45766 21.0344 7.45766 20.7955C7.45766 20.5565 7.50476 20.3199 7.59625 20.0992C7.68775 19.8785 7.82186 19.6779 7.99091 19.5091L8.04545 19.4545C8.25503 19.2403 8.39562 18.9682 8.44909 18.6733C8.50257 18.3784 8.46647 18.0742 8.34545 17.8C8.23022 17.5311 8.03887 17.3018 7.79497 17.1403C7.55107 16.9788 7.26526 16.8921 6.97273 16.8909H6.81818C6.33597 16.8909 5.87351 16.6994 5.53253 16.3584C5.19156 16.0174 5 15.5549 5 15.0727C5 14.5905 5.19156 14.1281 5.53253 13.7871C5.87351 13.4461 6.33597 13.2545 6.81818 13.2545H6.9C7.2009 13.2475 7.49273 13.1501 7.73754 12.975C7.98236 12.7999 8.16883 12.5552 8.27273 12.2727C8.39374 11.9985 8.42984 11.6944 8.37637 11.3995C8.3229 11.1046 8.18231 10.8324 7.97273 10.6182L7.91818 10.5636C7.74913 10.3948 7.61503 10.1943 7.52353 9.97353C7.43203 9.7528 7.38493 9.51621 7.38493 9.27727C7.38493 9.03834 7.43203 8.80174 7.52353 8.58102C7.61503 8.36029 7.74913 8.15977 7.91818 7.99091C8.08704 7.82186 8.28757 7.68775 8.50829 7.59625C8.72901 7.50476 8.96561 7.45766 9.20455 7.45766C9.44348 7.45766 9.68008 7.50476 9.9008 7.59625C10.1215 7.68775 10.322 7.82186 10.4909 7.99091L10.5455 8.04545C10.7597 8.25503 11.0318 8.39562 11.3267 8.44909C11.6216 8.50257 11.9258 8.46647 12.2 8.34545H12.2727C12.5416 8.23022 12.7709 8.03887 12.9324 7.79497C13.094 7.55107 13.1807 7.26526 13.1818 6.97273V6.81818C13.1818 6.33597 13.3734 5.87351 13.7144 5.53253C14.0553 5.19156 14.5178 5 15 5C15.4822 5 15.9447 5.19156 16.2856 5.53253C16.6266 5.87351 16.8182 6.33597 16.8182 6.81818V6.9C16.8193 7.19253 16.906 7.47834 17.0676 7.72224C17.2291 7.96614 17.4584 8.15749 17.7273 8.27273C18.0015 8.39374 18.3056 8.42984 18.6005 8.37637C18.8954 8.3229 19.1676 8.18231 19.3818 7.97273L19.4364 7.91818C19.6052 7.74913 19.8057 7.61503 20.0265 7.52353C20.2472 7.43203 20.4838 7.38493 20.7227 7.38493C20.9617 7.38493 21.1983 7.43203 21.419 7.52353C21.6397 7.61503 21.8402 7.74913 22.0091 7.91818C22.1781 8.08704 22.3122 8.28757 22.4037 8.50829C22.4952 8.72901 22.5423 8.96561 22.5423 9.20455C22.5423 9.44348 22.4952 9.68008 22.4037 9.9008C22.3122 10.1215 22.1781 10.322 22.0091 10.4909L21.9545 10.5455C21.745 10.7597 21.6044 11.0318 21.5509 11.3267C21.4974 11.6216 21.5335 11.9258 21.6545 12.2V12.2727C21.7698 12.5416 21.9611 12.7709 22.205 12.9324C22.4489 13.094 22.7347 13.1807 23.0273 13.1818H23.1818C23.664 13.1818 24.1265 13.3734 24.4675 13.7144C24.8084 14.0553 25 14.5178 25 15C25 15.4822 24.8084 15.9447 24.4675 16.2856C24.1265 16.6266 23.664 16.8182 23.1818 16.8182H23.1C22.8075 16.8193 22.5217 16.906 22.2778 17.0676C22.0339 17.2291 21.8425 17.4584 21.7273 17.7273Z" fill="#FF8308" stroke="#00394E" stroke-linecap="round" stroke-linejoin="round"/>
<path d="M14.9999 17.7273C16.5061 17.7273 17.7271 16.5062 17.7271 15C17.7271 13.4938 16.5061 12.2727 14.9999 12.2727C13.4936 12.2727 12.2726 13.4938 12.2726 15C12.2726 16.5062 13.4936 17.7273 14.9999 17.7273Z" fill="#FF8308" stroke="#00394E" stroke-linecap="round" stroke-linejoin="round"/>
</g>
<defs>
<filter id="filter0_dd" x="0.5" y="0.5" width="29" height="29" filterUnits="userSpaceOnUse" color-interpolation-filters="sRGB">
<feFlood flood-opacity="0" result="BackgroundImageFix"/>
<feColorMatrix in="SourceAlpha" type="matrix" values="0 0 0 0 0 0 0 0 0 0 0 0 0 0 0 0 0 0 127 0"/>
<feOffset dx="2" dy="-2"/>
<feGaussianBlur stdDeviation="1"/>
<feColorMatrix type="matrix" values="0 0 0 0 0 0 0 0 0 0 0 0 0 0 0 0 0 0 0.3 0"/>
<feBlend mode="normal" in2="BackgroundImageFix" result="effect1_dropShadow"/>
<feColorMatrix in="SourceAlpha" type="matrix" values="0 0 0 0 0 0 0 0 0 0 0 0 0 0 0 0 0 0 127 0"/>
<feOffset dx="-2" dy="2"/>
<feGaussianBlur stdDeviation="1"/>
<feColorMatrix type="matrix" values="0 0 0 0 1 0 0 0 0 1 0 0 0 0 1 0 0 0 0.4 0"/>
<feBlend mode="normal" in2="effect1_dropShadow" result="effect2_dropShadow"/>
<feBlend mode="normal" in="SourceGraphic" in2="effect2_dropShadow" result="shape"/>
</filter>
</defs>
</svg>
