<svg width="28" height="28" viewBox="0 0 28 28" fill="none" xmlns="http://www.w3.org/2000/svg">
<g filter="url(#filter0_dd)">
<path d="M20.7273 16.7273C20.6063 17.0015 20.5702 17.3056 20.6236 17.6005C20.6771 17.8954 20.8177 18.1676 21.0273 18.3818L21.0818 18.4364C21.2509 18.6052 21.385 18.8057 21.4765 19.0265C21.568 19.2472 21.6151 19.4838 21.6151 19.7227C21.6151 19.9617 21.568 20.1983 21.4765 20.419C21.385 20.6397 21.2509 20.8402 21.0818 21.0091C20.913 21.1781 20.7124 21.3122 20.4917 21.4037C20.271 21.4952 20.0344 21.5423 19.7955 21.5423C19.5565 21.5423 19.3199 21.4952 19.0992 21.4037C18.8785 21.3122 18.6779 21.1781 18.5091 21.0091L18.4545 20.9545C18.2403 20.745 17.9682 20.6044 17.6733 20.5509C17.3784 20.4974 17.0742 20.5335 16.8 20.6545C16.5311 20.7698 16.3018 20.9611 16.1403 21.205C15.9788 21.4489 15.8921 21.7347 15.8909 22.0273V22.1818C15.8909 22.664 15.6994 23.1265 15.3584 23.4675C15.0174 23.8084 14.5549 24 14.0727 24C13.5905 24 13.1281 23.8084 12.7871 23.4675C12.4461 23.1265 12.2545 22.664 12.2545 22.1818V22.1C12.2475 21.7991 12.1501 21.5073 11.975 21.2625C11.7999 21.0176 11.5552 20.8312 11.2727 20.7273C10.9985 20.6063 10.6944 20.5702 10.3995 20.6236C10.1046 20.6771 9.83243 20.8177 9.61818 21.0273L9.56364 21.0818C9.39478 21.2509 9.19425 21.385 8.97353 21.4765C8.7528 21.568 8.51621 21.6151 8.27727 21.6151C8.03834 21.6151 7.80174 21.568 7.58102 21.4765C7.36029 21.385 7.15977 21.2509 6.99091 21.0818C6.82186 20.913 6.68775 20.7124 6.59625 20.4917C6.50476 20.271 6.45766 20.0344 6.45766 19.7955C6.45766 19.5565 6.50476 19.3199 6.59625 19.0992C6.68775 18.8785 6.82186 18.6779 6.99091 18.5091L7.04545 18.4545C7.25503 18.2403 7.39562 17.9682 7.44909 17.6733C7.50257 17.3784 7.46647 17.0742 7.34545 16.8C7.23022 16.5311 7.03887 16.3018 6.79497 16.1403C6.55107 15.9788 6.26526 15.8921 5.97273 15.8909H5.81818C5.33597 15.8909 4.87351 15.6994 4.53253 15.3584C4.19156 15.0174 4 14.5549 4 14.0727C4 13.5905 4.19156 13.1281 4.53253 12.7871C4.87351 12.4461 5.33597 12.2545 5.81818 12.2545H5.9C6.2009 12.2475 6.49273 12.1501 6.73754 11.975C6.98236 11.7999 7.16883 11.5552 7.27273 11.2727C7.39374 10.9985 7.42984 10.6944 7.37637 10.3995C7.3229 10.1046 7.18231 9.83243 6.97273 9.61818L6.91818 9.56364C6.74913 9.39478 6.61503 9.19425 6.52353 8.97353C6.43203 8.7528 6.38493 8.51621 6.38493 8.27727C6.38493 8.03834 6.43203 7.80174 6.52353 7.58102C6.61503 7.36029 6.74913 7.15977 6.91818 6.99091C7.08704 6.82186 7.28757 6.68775 7.50829 6.59625C7.72901 6.50476 7.96561 6.45766 8.20455 6.45766C8.44348 6.45766 8.68008 6.50476 8.9008 6.59625C9.12152 6.68775 9.32205 6.82186 9.49091 6.99091L9.54545 7.04545C9.75971 7.25503 10.0318 7.39562 10.3267 7.44909C10.6216 7.50257 10.9258 7.46647 11.2 7.34545H11.2727C11.5416 7.23022 11.7709 7.03887 11.9324 6.79497C12.094 6.55107 12.1807 6.26526 12.1818 5.97273V5.81818C12.1818 5.33597 12.3734 4.87351 12.7144 4.53253C13.0553 4.19156 13.5178 4 14 4C14.4822 4 14.9447 4.19156 15.2856 4.53253C15.6266 4.87351 15.8182 5.33597 15.8182 5.81818V5.9C15.8193 6.19253 15.906 6.47834 16.0676 6.72224C16.2291 6.96614 16.4584 7.15749 16.7273 7.27273C17.0015 7.39374 17.3056 7.42984 17.6005 7.37637C17.8954 7.3229 18.1676 7.18231 18.3818 6.97273L18.4364 6.91818C18.6052 6.74913 18.8057 6.61503 19.0265 6.52353C19.2472 6.43203 19.4838 6.38493 19.7227 6.38493C19.9617 6.38493 20.1983 6.43203 20.419 6.52353C20.6397 6.61503 20.8402 6.74913 21.0091 6.91818C21.1781 7.08704 21.3122 7.28757 21.4037 7.50829C21.4952 7.72901 21.5423 7.96561 21.5423 8.20455C21.5423 8.44348 21.4952 8.68008 21.4037 8.9008C21.3122 9.12152 21.1781 9.32205 21.0091 9.49091L20.9545 9.54545C20.745 9.75971 20.6044 10.0318 20.5509 10.3267C20.4974 10.6216 20.5335 10.9258 20.6545 11.2V11.2727C20.7698 11.5416 20.9611 11.7709 21.205 11.9324C21.4489 12.094 21.7347 12.1807 22.0273 12.1818H22.1818C22.664 12.1818 23.1265 12.3734 23.4675 12.7144C23.8084 13.0553 24 13.5178 24 14C24 14.4822 23.8084 14.9447 23.4675 15.2856C23.1265 15.6266 22.664 15.8182 22.1818 15.8182H22.1C21.8075 15.8193 21.5217 15.906 21.2778 16.0676C21.0339 16.2291 20.8425 16.4584 20.7273 16.7273Z" fill="#6EB8A1" stroke="#00394E" stroke-linecap="round" stroke-linejoin="round"/>
<path d="M13.9999 16.7273C15.5061 16.7273 16.7271 15.5062 16.7271 14C16.7271 12.4938 15.5061 11.2727 13.9999 11.2727C12.4936 11.2727 11.2726 12.4938 11.2726 14C11.2726 15.5062 12.4936 16.7273 13.9999 16.7273Z" fill="#6EB8A1" stroke="#00394E" stroke-linecap="round" stroke-linejoin="round"/>
</g>
<defs>
<filter id="filter0_dd" x="0.5" y="0.5" width="27" height="27" filterUnits="userSpaceOnUse" color-interpolation-filters="sRGB">
<feFlood flood-opacity="0" result="BackgroundImageFix"/>
<feColorMatrix in="SourceAlpha" type="matrix" values="0 0 0 0 0 0 0 0 0 0 0 0 0 0 0 0 0 0 127 0"/>
<feMorphology radius="1" operator="erode" in="SourceAlpha" result="effect1_dropShadow"/>
<feOffset dx="-2" dy="2"/>
<feGaussianBlur stdDeviation="1"/>
<feColorMatrix type="matrix" values="0 0 0 0 0 0 0 0 0 0 0 0 0 0 0 0 0 0 0.3 0"/>
<feBlend mode="normal" in2="BackgroundImageFix" result="effect1_dropShadow"/>
<feColorMatrix in="SourceAlpha" type="matrix" values="0 0 0 0 0 0 0 0 0 0 0 0 0 0 0 0 0 0 127 0"/>
<feMorphology radius="1" operator="erode" in="SourceAlpha" result="effect2_dropShadow"/>
<feOffset dx="2" dy="-2"/>
<feGaussianBlur stdDeviation="1"/>
<feColorMatrix type="matrix" values="0 0 0 0 1 0 0 0 0 1 0 0 0 0 1 0 0 0 0.4 0"/>
<feBlend mode="normal" in2="effect1_dropShadow" result="effect2_dropShadow"/>
<feBlend mode="normal" in="SourceGraphic" in2="effect2_dropShadow" result="shape"/>
</filter>
</defs>
</svg>
