<svg width="70" height="70" viewBox="-10 -10 90 90" fill="none" xmlns="http://www.w3.org/2000/svg">
<path d="M22.3691 0.714583C0.641581 6.58296 -7.71042 26.7172 11.7902 33.4867H11.6319C11.7237 33.4991 11.816 33.5135 11.9074 33.5271C13.2061 33.972 14.6292 34.3559 16.1762 34.675C23.4465 37.531 28.7052 44.4515 29.1316 51.2145C24.2872 54.5535 20.5353 60.2999 20.5353 60.2999L24.3341 65.8927L18.3758 69.2857H30.2244C24.381 63.44 28.5245 56.8663 35.4462 56.8663C42.4626 56.8663 46.1348 63.8219 40.6725 69.2857H52.3991L46.563 65.8927L50.3621 60.2999C50.3621 60.2999 46.5495 54.4592 41.6485 51.1333C42.1116 44.396 47.3581 37.5196 54.5993 34.6749C56.1468 34.3558 57.5692 33.9723 58.8678 33.5273C58.9593 33.5135 59.0518 33.4991 59.1436 33.4868H58.981C78.4844 26.718 70.1348 6.58325 48.4063 0.714294C42.52 6.406 49.3516 15.4146 54.7123 8.93699C60.0462 18.9239 55.9559 27.3822 44.2644 20.995C42.5471 24.5358 39.3189 26.9764 35.492 26.9764C31.6322 26.9764 28.3849 24.4946 26.6789 20.9045C14.8586 27.465 10.7046 18.9713 16.0637 8.93699C21.425 15.4144 28.2564 6.40586 22.3698 0.714439L22.3691 0.714583ZM35.4926 5.90753C31.5337 5.90753 28.0729 9.89129 28.0729 15.1036C28.0729 20.3162 31.5337 24.2108 35.4926 24.2108C39.4514 24.2108 42.9118 20.3161 42.9118 15.1038C42.9118 9.89086 39.4514 5.90767 35.4925 5.90767L35.4926 5.90753Z" fill="#FFFFFF"/>
</svg>
