<svg width="70" height="70" viewBox="0 0 70 70" fill="none" xmlns="http://www.w3.org/2000/svg">
<path d="M11.9672 0.714294L0.824829 11.7796L7.16772 15.2587L3.1625 19.2319L19.1366 28.7962C13.1328 39.1374 14.5762 52.541 23.4714 61.3697C34.1013 71.9258 51.3413 71.923 61.9733 61.3697C72.6054 50.8164 72.6086 33.7059 61.9788 23.1556C53.0843 14.3285 39.578 12.8997 29.1585 18.8544L19.5226 3.00151L18.2697 4.24455L15.5103 6.98212L11.9672 0.714294ZM18.9776 7.43632L28.2317 22.6611L29.4338 21.8874C35.9969 17.6619 44.1326 16.8687 51.2809 19.5172C51.1087 19.5134 50.9353 19.5113 50.7609 19.5113C44.973 19.5113 40.2811 21.6941 40.2811 24.3869C40.2811 27.0802 44.973 29.2628 50.7609 29.2628C55.4415 29.2628 59.4045 27.8352 60.7497 25.8648C63.1163 28.421 64.831 31.3523 65.8936 34.4524C64.7416 33.9531 63.1799 33.4638 61.3061 33.0426C56.6473 31.9959 50.091 31.3303 42.8528 31.3303C35.6148 31.3303 29.0587 31.9958 24.3997 33.0426C22.3644 33.4999 20.6889 34.0377 19.5167 34.5814C20.161 32.6654 21.0521 30.8122 22.1915 29.0704L22.9728 27.8757L7.63327 18.6915L9.69586 16.6453L16.6637 20.4669L20.8076 16.3517L16.9211 9.47675L18.9779 7.43617L18.9776 7.43632ZM18.8163 37.1099C18.8878 37.1512 18.9621 37.1925 19.0398 37.2338C20.2111 37.8559 22.0697 38.4849 24.3994 39.0082C29.0583 40.0549 35.6145 40.7205 42.8525 40.7205C50.0907 40.7205 56.647 40.0551 61.3058 39.0082C63.6346 38.4849 65.4926 37.8565 66.664 37.2343C66.8475 38.0948 66.9837 38.9631 67.0717 39.8353C65.6715 40.4658 63.9239 40.9988 61.8649 41.4616C56.9356 42.5692 50.2456 43.2361 42.8527 43.2361C35.4595 43.2361 28.7697 42.5692 23.8405 41.4616C21.6627 40.9722 19.8323 40.4046 18.3938 39.7256C18.4866 38.8481 18.6269 37.9748 18.8161 37.1096L18.8163 37.1099Z" fill="#F0FFF6"/>
</svg>
