<svg width="70" height="70" viewBox="-10 -10 90 90" fill="none" xmlns="http://www.w3.org/2000/svg">
<path d="M44.6586 0.714437C42.2233 5.64247 39.0312 9.28649 35.4282 9.28649C31.8408 9.28649 28.5473 5.68494 26.1157 0.794804C26.1692 6.40311 24.6952 13.7453 21.5896 15.7746C18.4841 17.8037 14.3276 14.0643 10.0552 11.1968C12.6087 16.0473 16.2134 20.8152 14.4118 24.3462C12.6256 27.8481 5.75527 29.4703 0.824844 29.4227C5.11684 32.1714 12.359 35.9494 12.3593 39.9941C12.3596 44.0387 5.11713 47.6475 0.824844 50.3962C5.75527 50.3488 12.6254 52.0508 14.4121 55.5527C16.2009 59.0594 13.0911 63.5765 9.47467 67.7449C16.0325 65.5487 19.0046 66.9277 21.9644 69.2856H26.6093C20.3567 64.2394 16.067 53.9207 16.067 41.9889C16.0667 25.0862 24.6867 11.3659 35.291 11.3659C45.8956 11.3659 54.515 25.0867 54.515 41.989C54.515 53.9215 50.2261 64.24 43.9727 69.2857H47.9685C50.872 67.2024 53.7904 65.6307 61.0892 67.9634C57.2515 63.6509 54.9156 59.0597 56.7048 55.5528C58.4979 52.0382 64.9935 50.3358 69.9493 50.3962C65.6482 47.6465 58.9268 44.0432 58.9268 39.9941C58.9268 35.9451 65.6481 32.1726 69.949 29.4228C64.9934 29.4833 58.4981 27.8608 56.7049 24.3465C54.9033 20.8154 58.1652 16.0476 60.7188 11.1971C56.4467 14.064 52.2947 17.8067 49.1842 15.7746C46.0737 13.7422 44.5932 6.35138 44.6581 0.714294L44.6586 0.714437ZM34.5686 14.0733C31.7071 14.4357 29.1055 17.716 29.1055 21.9685C29.1055 24.3121 29.935 26.3839 31.1537 27.8154L32.6394 29.5564L30.3583 29.9749C28.7761 30.2648 27.6162 31.0773 26.6233 32.4062C25.63 33.735 24.8701 35.5901 24.3373 37.7274C23.374 41.593 23.1556 46.3113 23.1216 50.4764H28.4019L28.4978 51.7099L29.8326 69.1744H40.9784L42.1626 51.7188L42.245 50.4763H47.2739C47.2701 46.2596 47.2095 41.4755 46.3366 37.5805C45.8545 35.4296 45.1242 33.577 44.1193 32.2636C43.1143 30.9504 41.9054 30.1409 40.1284 29.8725L37.7965 29.5206L39.2688 27.7262C40.4347 26.3018 41.2255 24.255 41.2255 21.9685C41.2252 17.4348 38.3165 14.0867 35.163 14.0867C34.7914 14.0867 34.5837 14.072 34.5734 14.0733H34.5691H34.5686Z" fill="#F0FFF6"/>
</svg>
