<svg width="70" height="70" viewBox="0 0 70 70" fill="none" xmlns="http://www.w3.org/2000/svg">
  <path
     d="M0 0h512v512H0z"
     fill="#000"
     fill-opacity="0"
     id="path2" />
  <g
     class=""
     transform="matrix(0.1492787,0,0,0.1492787,-3.2153472,-3.2154218)"
     id="g6">
    <path
       d="m 138.798,35.342 -110.068,78.926 95.777,29.095 111.305,-87.09 -97.014,-20.93 z m 112.986,31.082 -118.047,89.96 51.07,131.102 8.534,-7.455 4.23,-15.708 a 18.338,13.102 76.863 0 1 -9.08,-20.45 18.338,13.102 76.863 0 1 10.997,-13.727 18.338,13.102 76.863 0 1 3.62,0.53 18.338,13.102 76.863 0 1 3.113,1.544 l 7.94,-29.48 a 9,9 0 0 1 0.353,-1.04 9,9 0 0 1 0.058,-0.128 9,9 0 0 1 0.32,-0.685 9,9 0 0 1 0.09,-0.153 9,9 0 0 1 0.37,-0.625 9,9 0 0 1 0.534,-0.723 9,9 0 0 1 0.066,-0.074 9,9 0 0 1 0.54,-0.594 9,9 0 0 1 0.65,-0.593 9,9 0 0 1 0.004,-0.002 9,9 0 0 1 0.46,-0.342 9,9 0 0 1 0.266,-0.197 9,9 0 0 1 0.502,-0.3 9,9 0 0 1 0.27,-0.157 9,9 0 0 1 0.44,-0.208 9,9 0 0 1 0.38,-0.178 9,9 0 0 1 0.437,-0.152 9,9 0 0 1 0.41,-0.143 9,9 0 0 1 0.404,-0.1 9,9 0 0 1 0.47,-0.114 9,9 0 0 1 0.51,-0.07 9,9 0 0 1 0.37,-0.05 9,9 0 0 1 0.01,0 9,9 0 0 1 0.01,-0.003 l 33.624,-2.873 a 18.338,13.102 76.863 0 1 10.326,-9.777 18.338,13.102 76.863 0 1 3.622,0.53 18.338,13.102 76.863 0 1 8.527,7.327 L 291.227,190.203 251.785,66.42 Z M 137.25,74.03 a 9.8,19.77 77.916 0 1 12.798,8.734 9.8,19.77 77.916 0 1 -21.938,11.998 9.8,19.77 77.916 0 1 -16.57,-8.602 9.8,19.77 77.916 0 1 21.938,-12 9.8,19.77 77.916 0 1 3.77,-0.13 z m 100.228,23.517 a 18.338,13.102 76.863 0 1 0.002,0 18.338,13.102 76.863 0 1 3.62,0.53 18.338,13.102 76.863 0 1 12.112,21.94 18.338,13.102 76.863 0 1 -14.617,13.196 18.338,13.102 76.863 0 1 -12.114,-21.94 18.338,13.102 76.863 0 1 10.998,-13.726 z M 24.22,131.71 71.212,245.834 165.448,286.214 119.46,160.644 24.22,131.709 Z m 147.886,17.43 a 18.338,13.102 76.863 0 1 3.622,0.528 18.338,13.102 76.863 0 1 12.11,21.94 18.338,13.102 76.863 0 1 -14.616,13.197 18.338,13.102 76.863 0 1 -12.112,-21.94 18.338,13.102 76.863 0 1 10.996,-13.726 z m -75.123,13.016 a 19.454,9.134 59.254 0 1 16.955,15.078 19.454,9.134 59.254 0 1 -0.425,19.485 19.454,9.134 59.254 0 1 -17.913,-14.939 19.454,9.134 59.254 0 1 0.424,-19.48 19.454,9.134 59.254 0 1 0.96,-0.144 z m 263.393,40.21 -112.102,9.577 113.762,79.926 113.598,-16.956 -115.258,-72.55 z M 70.82,212.022 a 19.454,9.134 59.254 0 1 16.957,15.078 19.454,9.134 59.254 0 1 -0.425,19.484 19.454,9.134 59.254 0 1 -17.913,-14.938 19.454,9.134 59.254 0 1 0.425,-19.482 19.454,9.134 59.254 0 1 0.96,-0.14 z m 157.378,7.813 -41.538,154.188 115.616,99.454 47.147,-168.47 -121.225,-85.17 z m 126.987,11.168 a 21.76,8.898 15.267 0 1 19.693,4.783 21.76,8.898 15.267 0 1 7.607,14.244 21.76,8.898 15.267 0 1 -28.886,-3.182 21.76,8.898 15.267 0 1 -7.61,-14.244 21.76,8.898 15.267 0 1 9.195,-1.6 z M 487.78,291.3 366.9,309.343 320.077,476.659 436.374,444.889 Z m -181.808,10.8 a 25.834,15.573 84.277 0 1 4.238,0.943 25.834,15.573 84.277 0 1 12.873,31.72 25.834,15.573 84.277 0 1 -18.105,17.893 25.834,15.573 84.277 0 1 -12.874,-31.72 25.834,15.573 84.277 0 1 13.868,-18.836 z m 154.086,11.636 a 13.237,21.96 28.62 0 1 7.673,4.13 13.237,21.96 28.62 0 1 -6.176,28.435 13.237,21.96 28.62 0 1 -21.287,3.878 13.237,21.96 28.62 0 1 6.175,-28.434 13.237,21.96 28.62 0 1 13.616,-8.008 z M 391.362,324.4 a 13.237,21.96 28.62 0 1 7.672,4.13 13.237,21.96 28.62 0 1 -6.176,28.435 13.237,21.96 28.62 0 1 -21.287,3.877 13.237,21.96 28.62 0 1 6.177,-28.434 13.237,21.96 28.62 0 1 13.615,-8.008 z m -173.996,13.305 a 25.834,15.573 84.277 0 1 4.24,0.945 25.834,15.573 84.277 0 1 12.872,31.72 25.834,15.573 84.277 0 1 -18.106,17.894 25.834,15.573 84.277 0 1 -12.873,-31.72 25.834,15.573 84.277 0 1 13.866,-18.84 z m 212.278,60.87 a 13.237,21.96 28.62 0 1 7.67,4.13 13.237,21.96 28.62 0 1 -6.174,28.434 13.237,21.96 28.62 0 1 -21.287,3.876 13.237,21.96 28.62 0 1 6.175,-28.434 13.237,21.96 28.62 0 1 13.616,-8.008 z m -70.332,19.488 a 13.237,21.96 28.62 0 1 7.67,4.132 13.237,21.96 28.62 0 1 -6.174,28.434 13.237,21.96 28.62 0 1 -21.287,3.874 13.237,21.96 28.62 0 1 6.176,-28.434 13.237,21.96 28.62 0 1 13.616,-8.007 z"
       fill="#f0fff6"
       fill-opacity="1"
       id="path4" />
  </g>
</svg>
