<svg width="70" height="70" viewBox="-10 -10 90 90" fill="none" xmlns="http://www.w3.org/2000/svg">
<path d="M15.7373 0.714294V0.72885C11.886 1.19463 8.48136 5.38664 8.48136 10.7431C8.48136 13.7124 9.57515 16.3325 11.1773 18.1519L12.7487 19.9277L10.33 20.3498C8.21946 20.7282 6.66351 21.7908 5.36945 23.4792C4.05998 25.1531 3.07403 27.482 2.38078 30.1457C1.11753 35.0364 0.85564 41.0187 0.824829 46.2297H7.60324L9.4365 69.2857H24.272L25.8896 46.2297H32.3445C32.3445 40.9605 32.2982 34.9054 31.1428 29.971C30.5266 27.2783 29.5715 24.9639 28.262 23.29C26.9371 21.6307 25.3041 20.5681 22.9471 20.2334L20.4822 19.8695L22.0382 18.0355C23.5787 16.216 24.6109 13.6397 24.6109 10.7431C24.6109 5.03731 20.7903 0.72885 16.5384 0.72885C16.0917 0.72885 15.8144 0.714294 15.7373 0.714294ZM65.1736 1.87874C62.5238 1.87874 60.3979 3.88305 60.3979 6.39098C60.3979 8.89891 62.5238 10.9032 65.1736 10.9032C67.8233 10.9032 69.9493 8.89891 69.9493 6.39098C69.9493 3.88305 67.8233 1.87874 65.1736 1.87874ZM45.3005 5.08097V12.0677H29.4328V14.6877H45.3005V37.6855H36.8275V40.3055H45.3005V56.3167H29.4328V58.9367H45.3005V63.5945H57.7481C57.6711 63.1724 57.6249 62.7357 57.6249 62.2845C57.6249 61.8333 57.6711 61.3966 57.7481 60.9745H48.0735V40.3055H57.7481C57.6711 39.8834 57.6249 39.4467 57.6249 38.9955C57.6249 38.5443 57.6711 38.1076 57.7481 37.6855H48.0735V7.70098H57.7481C57.6711 7.27596 57.6249 6.83783 57.6249 6.39098C57.6249 5.94412 57.6711 5.506 57.7481 5.08097H45.3005ZM65.1736 34.4833C62.5238 34.4833 60.3979 36.492 60.3979 38.9955C60.3979 41.4991 62.5238 43.5078 65.1736 43.5078C67.8233 43.5078 69.9493 41.4991 69.9493 38.9955C69.9493 36.492 67.8233 34.4833 65.1736 34.4833ZM65.1736 57.7722C62.5238 57.7722 60.3979 59.7809 60.3979 62.2845C60.3979 64.788 62.5238 66.7967 65.1736 66.7967C67.8233 66.7967 69.9493 64.788 69.9493 62.2845C69.9493 59.7809 67.8233 57.7722 65.1736 57.7722Z" fill="#F0FFF6"/>
</svg>
